<svg xmlns="http://www.w3.org/2000/svg"  viewBox="0 0 64 64" width="512px" height="512px"><linearGradient id="ub_JXsJM9yrC8X9EolBxva" x1="32" x2="32" y1="397" y2="341.988" gradientTransform="matrix(1 0 0 -1 0 402)" gradientUnits="userSpaceOnUse" spreadMethod="reflect"><stop offset="0" stop-color="#1a6dff"/><stop offset="1" stop-color="#c822ff"/></linearGradient><path fill="url(#ub_JXsJM9yrC8X9EolBxva)" d="M51.121,15.707l-8.828-8.828C41.727,6.313,40.973,6,40.171,6H15c-1.654,0-3,1.346-3,3v40v2v4 c0,1.654,1.346,3,3,3h34c1.654,0,3-1.346,3-3v-4v-2V17.828C52,17.027,51.688,16.273,51.121,15.707z M48.586,16H43 c-0.551,0-1-0.448-1-1V9.414L48.586,16z M49,56H15c-0.551,0-1-0.448-1-1v-1.185C14.314,53.928,14.648,54,15,54h34 c0.352,0,0.686-0.072,1-0.184V55C50,55.552,49.551,56,49,56z M50,51c0,0.552-0.449,1-1,1H15c-0.551,0-1-0.448-1-1v-2V9 c0-0.552,0.449-1,1-1h25v7c0,1.654,1.346,3,3,3h7v31V51z"/><linearGradient id="ub_JXsJM9yrC8X9EolBxvb" x1="36.5" x2="36.5" y1="376.625" y2="370.095" gradientTransform="matrix(1 0 0 -1 0 402)" gradientUnits="userSpaceOnUse" spreadMethod="reflect"><stop offset="0" stop-color="#6dc7ff"/><stop offset="1" stop-color="#e6abff"/></linearGradient><path fill="url(#ub_JXsJM9yrC8X9EolBxvb)" d="M36.5 26A2.5 2.5 0 1 0 36.5 31A2.5 2.5 0 1 0 36.5 26Z"/><linearGradient id="ub_JXsJM9yrC8X9EolBxvc" x1="32" x2="32" y1="22" y2="44" gradientUnits="userSpaceOnUse" spreadMethod="reflect"><stop offset="0" stop-color="#6dc7ff"/><stop offset="1" stop-color="#e6abff"/></linearGradient><path fill="url(#ub_JXsJM9yrC8X9EolBxvc)" d="M40,22H24c-1.654,0-3,1.346-3,3v16c0,1.654,1.346,3,3,3h16c1.654,0,3-1.346,3-3V25 C43,23.346,41.654,22,40,22z M23,41v-0.684l4.833-4.905c0.268-0.272,0.596-0.404,0.986-0.411c0.365,0.008,0.706,0.166,0.961,0.446 L35.739,42H24C23.449,42,23,41.552,23,41z M41,41c0,0.552-0.449,1-1,1h-1.558l-7.183-7.899c-0.628-0.69-1.48-1.081-2.401-1.1 c-0.904-0.037-1.792,0.339-2.451,1.006L23,37.466V25c0-0.552,0.449-1,1-1h16c0.551,0,1,0.448,1,1V41z"/></svg>