<?xml version="1.0" standalone="no"?>
<svg xmlns:xlink="http://www.w3.org/1999/xlink" id="wave" style="transform:rotate(0deg); transition: 0.3s" viewBox="0 0 1440 490" version="1.1" xmlns="http://www.w3.org/2000/svg"><defs><linearGradient id="sw-gradient-0" x1="0" x2="0" y1="1" y2="0"><stop stop-color="rgba(0, 68, 255, 0.452)" offset="0%"/><stop stop-color="rgba(221, 113, 113, 0.5)" offset="100%"/></linearGradient></defs><path style="transform:translate(0, 0px); opacity:1" fill="url(#sw-gradient-0)" d="M0,441L80,416.5C160,392,320,343,480,326.7C640,310,800,327,960,285.8C1120,245,1280,147,1440,106.2C1600,65,1760,82,1920,81.7C2080,82,2240,65,2400,89.8C2560,114,2720,180,2880,212.3C3040,245,3200,245,3360,236.8C3520,229,3680,212,3840,171.5C4000,131,4160,65,4320,81.7C4480,98,4640,196,4800,245C4960,294,5120,294,5280,310.3C5440,327,5600,359,5760,310.3C5920,261,6080,131,6240,73.5C6400,16,6560,33,6720,73.5C6880,114,7040,180,7200,204.2C7360,229,7520,212,7680,228.7C7840,245,8000,294,8160,310.3C8320,327,8480,310,8640,310.3C8800,310,8960,327,9120,310.3C9280,294,9440,245,9600,236.8C9760,229,9920,261,10080,285.8C10240,310,10400,327,10560,294C10720,261,10880,180,11040,187.8C11200,196,11360,294,11440,343L11520,392L11520,490L11440,490C11360,490,11200,490,11040,490C10880,490,10720,490,10560,490C10400,490,10240,490,10080,490C9920,490,9760,490,9600,490C9440,490,9280,490,9120,490C8960,490,8800,490,8640,490C8480,490,8320,490,8160,490C8000,490,7840,490,7680,490C7520,490,7360,490,7200,490C7040,490,6880,490,6720,490C6560,490,6400,490,6240,490C6080,490,5920,490,5760,490C5600,490,5440,490,5280,490C5120,490,4960,490,4800,490C4640,490,4480,490,4320,490C4160,490,4000,490,3840,490C3680,490,3520,490,3360,490C3200,490,3040,490,2880,490C2720,490,2560,490,2400,490C2240,490,2080,490,1920,490C1760,490,1600,490,1440,490C1280,490,1120,490,960,490C800,490,640,490,480,490C320,490,160,490,80,490L0,490Z"/></svg>